<svg xmlns="http://www.w3.org/2000/svg" viewBox="0 0 187.69 119.55"><defs><style>.cls-1{fill:#fff;}</style></defs><title>logo</title><g id="Слой_2" data-name="Слой 2"><g id="Слой_1-2" data-name="Слой 1"><path d="M94.15,0q37.73,0,75.46,0c12.45,0,18.06,5.57,18.06,17.93q0,42,0,84c0,11.78-5.71,17.6-17.42,17.61q-76.46.06-152.93,0C5.87,119.51,0,113.66,0,102.3Q0,59.82,0,17.34C0,5.88,5.81,0,17.19,0Q55.67,0,94.15,0ZM94,108.78q37.48,0,75,0c6.92,0,7.93-1,7.93-7.67q0-41.48,0-83c0-6.26-1.06-7.34-7.19-7.35q-75.72,0-151.44,0c-6.47,0-7.43,1-7.43,7.61q0,41,0,82c0,7.65.79,8.41,8.69,8.41Z"/><path class="cls-1" d="M94,108.78H19.51c-7.9,0-8.69-.77-8.69-8.41q0-41,0-82c0-6.62,1-7.61,7.43-7.61q75.72,0,151.44,0c6.13,0,7.19,1.08,7.19,7.35q0,41.48,0,83c0,6.69-1,7.67-7.93,7.67Q131.46,108.8,94,108.78Zm-.25-15.59q14,0,27.94,0a43.26,43.26,0,0,0,4.48-.19c3.13-.33,5.31-2.23,4.59-5.23-.46-1.92-2.69-3.56-4.43-5-.74-.6-2.25-.31-3.41-.31q-28.94,0-57.87,0a30.21,30.21,0,0,0-3.48.19C58.43,83,56.17,85,57,87.91c.55,2,3,3.73,4.91,5,1.07.7,2.91.25,4.41.25Q80,93.2,93.73,93.19ZM64,26.3a7.19,7.19,0,0,0-7.36,7.12,7.1,7.1,0,0,0,14.2.5A7.14,7.14,0,0,0,64,26.3Zm36.91,7a7.09,7.09,0,1,0-14.18.25,7.09,7.09,0,1,0,14.18-.25Zm23.11-7a7.15,7.15,0,0,0-7.22,7.24A7.1,7.1,0,0,0,131,33.8,7.15,7.15,0,0,0,124,26.3ZM33.55,40.71a7,7,0,0,0,7.27-7.14,7.13,7.13,0,0,0-14.26-.3A7.06,7.06,0,0,0,33.55,40.71Zm120.42,0a7.07,7.07,0,0,0,7.19-7.26,7.28,7.28,0,0,0-6.87-7.16,7.2,7.2,0,0,0-7.4,7.09A7,7,0,0,0,154,40.71ZM78.44,63.09a7.1,7.1,0,1,0-6.71-7.59A6.86,6.86,0,0,0,78.44,63.09ZM116,56.2a7.09,7.09,0,1,0-7.42,6.89A6.86,6.86,0,0,0,116,56.2Zm30.1-.21a7.11,7.11,0,1,0-7.23,7.1A6.89,6.89,0,0,0,146.08,56ZM55.72,56a7,7,0,1,0-13.94.25,6.58,6.58,0,0,0,7.09,6.68A6.65,6.65,0,0,0,55.72,56Z"/><path d="M93.73,93.19q-13.72,0-27.44,0c-1.49,0-3.34.45-4.41-.25-2-1.28-4.36-3-4.91-5C56.17,85,58.43,83,61.55,82.68A30.21,30.21,0,0,1,65,82.49q28.94,0,57.87,0c1.16,0,2.67-.29,3.41.31,1.74,1.39,4,3,4.43,5,.72,3-1.46,4.9-4.59,5.23a43.26,43.26,0,0,1-4.48.19Q107.7,93.2,93.73,93.19Z"/><path d="M64,26.3a7.14,7.14,0,0,1,6.83,7.61,7.1,7.1,0,0,1-14.2-.5A7.19,7.19,0,0,1,64,26.3Z"/><path d="M100.94,33.29a7.09,7.09,0,1,1-14.18.25,7.09,7.09,0,1,1,14.18-.25Z"/><path d="M124,26.3a7.15,7.15,0,0,1,7,7.5,7.1,7.1,0,0,1-14.19-.25A7.15,7.15,0,0,1,124,26.3Z"/><path d="M33.55,40.71a7.06,7.06,0,0,1-7-7.44,7.13,7.13,0,0,1,14.26.3A7,7,0,0,1,33.55,40.71Z"/><path d="M154,40.71a7,7,0,0,1-7.08-7.32,7.2,7.2,0,0,1,7.4-7.09,7.28,7.28,0,0,1,6.87,7.16A7.07,7.07,0,0,1,154,40.71Z"/><path d="M78.44,63.09a7.1,7.1,0,1,1,7.46-6.85A6.87,6.87,0,0,1,78.44,63.09Z"/><path d="M116,56.2a7.09,7.09,0,1,1-7-7.29A6.84,6.84,0,0,1,116,56.2Z"/><path d="M146.08,56a7.11,7.11,0,1,1-7.25-7.08A6.87,6.87,0,0,1,146.08,56Z"/><path d="M55.72,56a6.65,6.65,0,0,1-6.86,6.94,6.58,6.58,0,0,1-7.09-6.68A7,7,0,1,1,55.72,56Z"/></g></g></svg>